<?xml version="1.0" encoding="UTF-8" standalone="no"?>
<svg
   version="1.0"
   width="1024.000000pt"
   height="1024.000000pt"
   viewBox="0 0 1024.000000 1024.000000"
   preserveAspectRatio="xMidYMid meet"
   id="svg8"
   sodipodi:docname="dog_cleanup.svg"
   inkscape:version="1.3.2 (091e20e, 2023-11-25, custom)"
   xmlns:inkscape="http://www.inkscape.org/namespaces/inkscape"
   xmlns:sodipodi="http://sodipodi.sourceforge.net/DTD/sodipodi-0.dtd"
   xmlns="http://www.w3.org/2000/svg"
   xmlns:svg="http://www.w3.org/2000/svg">
  <defs
     id="defs8" />
  <sodipodi:namedview
     id="namedview8"
     pagecolor="#ffffff"
     bordercolor="#000000"
     borderopacity="0.25"
     inkscape:showpageshadow="2"
     inkscape:pageopacity="0.0"
     inkscape:pagecheckerboard="0"
     inkscape:deskcolor="#d1d1d1"
     inkscape:document-units="pt"
     inkscape:zoom="0.85913086"
     inkscape:cx="682.08468"
     inkscape:cy="682.66667"
     inkscape:window-width="3440"
     inkscape:window-height="1369"
     inkscape:window-x="-8"
     inkscape:window-y="1072"
     inkscape:window-maximized="1"
     inkscape:current-layer="g8" />
  <g
     transform="translate(0.000000,1024.000000) scale(0.100000,-0.100000)"
     fill="#000000"
     stroke="none"
     id="g8">
    <path
       d="m 4925,7870 c -121,-12 -194,-26 -290,-56 -356,-111 -686,-324 -887,-573 -195,-241 -319,-505 -385,-821 -26,-127 -28,-149 -27,-370 0,-230 1,-238 31,-351 81,-306 237,-574 468,-805 215,-215 380,-318 725,-452 217,-84 412,-117 640,-109 161,6 348,34 403,62 36,18 37,18 37,5 0,-6 -33,-47 -73,-93 -40,-45 -83,-95 -96,-112 -33,-43 -57,-54 -100,-44 -20,5 -42,9 -49,9 -18,0 -130,-108 -148,-142 l -14,-26 -190,96 c -175,89 -196,97 -258,100 -58,3 -74,0 -121,-25 -69,-36 -116,-101 -133,-185 -12,-57 -16,-63 -73,-106 -33,-25 -98,-78 -145,-117 -101,-86 -201,-160 -264,-197 -39,-23 -46,-32 -46,-58 0,-49 36,-106 93,-148 123,-90 415,-268 732,-445 94,-52 249,-141 345,-197 263,-154 404,-226 531,-269 178,-62 336,-78 376,-38 17,17 11,42 -40,177 -30,78 -75,312 -84,431 -6,83 -5,88 20,121 44,57 79,146 85,213 4,52 0,72 -20,117 -33,71 -107,142 -204,197 -44,24 -101,60 -127,79 l -48,35 19,21 c 47,51 68,123 50,173 -11,31 -11,36 7,46 11,6 29,22 40,35 11,13 56,65 100,115 44,50 107,123 140,163 89,108 258,297 350,394 198,206 409,458 547,652 142,200 258,348 387,493 68,76 133,159 144,184 37,84 -3,195 -91,253 -44,27 -52,29 -114,24 -71,-5 -143,-31 -167,-59 -26,-32 -38,-19 -40,45 -5,149 -76,384 -174,577 -118,235 -342,497 -547,643 -173,122 -415,238 -600,287 -177,47 -514,71 -715,51 z"
       id="path1"
       inkscape:label="path1"
       style="display:inline;fill:#11242e;fill-opacity:1" />
    <path
       d="m 5070,7221.0002 c 137,-47 216,-124 265,-257 45,-120 93,-154 220,-154 70,0 75,-1 61,-16 -20,-19 -21,-83 -2,-128 7,-18 28,-43 45,-55 38,-27 39,-51 5,-119 -30,-61 -68,-96 -144,-131 -51,-24 -65,-26 -185,-25 -88,0 -149,6 -190,17 -50,14 -62,14 -73,3 -16,-15 -31,-77 -32,-122 0,-28 5,-34 39,-47 l 38,-16 7,-170 c 4,-93 4,-195 1,-225 -7,-50 -4,-61 23,-109 38,-68 52,-142 52,-276 0,-182 -21,-266 -103,-422 l -40,-76 28,-69 c 25,-60 29,-85 33,-193 l 4,-124 -88,6 c -115,9 -374,62 -385,79 -5,7 -9,130 -9,272 0,253 -1,260 -22,283 -24,26 -73,31 -102,10 -28,-21 -36,-81 -36,-294 0,-111 -4,-204 -9,-207 -4,-3 -42,13 -85,34 -210,110 -402,265 -546,441 l -81,99 58,77 c 32,42 77,104 100,138 23,34 75,99 116,146 77,88 157,200 194,272 28,54 63,200 63,264 0,27 2,52 5,55 3,2 36,-11 74,-30 154,-76 318,-29 427,124 78,109 82,134 90,517 l 7,334 -37,13 c -44,14 -98,6 -117,-17 -11,-12 -15,-92 -19,-362 -4,-297 -7,-350 -22,-376 -37,-67 -105,-105 -188,-105 -98,0 -184,65 -238,179 -24,51 -25,60 -19,170 18,330 84,474 257,559 126,62 423,79 560,33 z"
       id="path40"
       style="fill:#ffffff;fill-opacity:1" />
    <g
       id="g50"
       style="fill:#ffffff;fill-opacity:1">
      <path
         d="m 5789,4348 c -98,-139 -195,-248 -220,-248 -10,0 -19,3 -19,6 0,8 40,54 158,182 93,100 128,126 81,60 z"
         id="path42"
         style="fill:#ffffff;fill-opacity:1" />
      <path
         d="m 7217,6148 c 13,-12 23,-30 23,-40 0,-18 -46,-68 -155,-168 -82,-75 -172,-191 -235,-303 -28,-50 -69,-112 -92,-137 -47,-53 -37,-30 38,85 29,46 90,157 135,247 45,90 102,190 128,222 96,123 115,135 158,94 z"
         id="path41"
         style="fill:#ffffff;fill-opacity:1" />
      <path
         d="m 5703,3168.0003 c 23,-22 26,-33 36,-183 6,-88 21,-205 32,-260 31,-144 34,-175 18,-175 -8,0 -33,9 -55,19 -49,22 -51,29 -59,206 -11,273 -13,415 -5,415 5,0 20,-10 33,-22 z"
         id="path50"
         style="fill:#ffffff;fill-opacity:1" />
      <path
         d="m 5531,2955.0003 c -1,-165 -3,-301 -5,-302 -1,-1 -22,8 -47,20 -25,13 -64,31 -88,40 l -44,18 7,82 c 4,45 21,160 37,255 16,95 29,185 29,201 0,15 3,31 6,34 4,4 29,-6 57,-21 l 50,-27 z"
         id="path49"
         style="fill:#ffffff;fill-opacity:1" />
      <path
         d="m 5296,3351.0003 c -3,-9 -26,-126 -52,-261 -26,-135 -48,-247 -50,-249 -2,-2 -47,17 -100,43 -77,37 -95,50 -91,64 12,38 55,150 77,197 13,28 35,77 49,110 15,33 40,87 56,121 l 30,61 43,-35 c 27,-22 41,-41 38,-51 z"
         id="path48"
         style="fill:#ffffff;fill-opacity:1" />
      <path
         d="m 4792,3665.0003 c 20,-14 41,-25 46,-25 5,0 14,-6 20,-13 8,-9 5,-23 -12,-52 -39,-69 -217,-303 -266,-350 l -29,-28 -66,43 c -36,23 -65,45 -65,47 0,11 48,73 122,158 151,174 165,190 183,218 9,15 20,27 24,27 3,0 23,-11 43,-25 z"
         id="path46"
         style="fill:#ffffff;fill-opacity:1" />
      <path
         d="m 5035,3382.0003 c -72,-162 -163,-349 -174,-356 -10,-6 -105,48 -143,81 -16,14 -15,19 16,67 18,28 42,65 52,82 28,46 93,140 153,221 l 53,72 43,-35 42,-36 z"
         id="path47"
         style="fill:#ffffff;fill-opacity:1" />
      <path
         d="m 4630,3757.0003 c 0,-7 -8,-24 -17,-37 -25,-37 -283,-308 -313,-330 l -27,-19 -59,44 c -33,24 -65,45 -71,45 -24,0 -13,26 20,50 49,37 244,198 311,257 l 58,52 49,-25 c 27,-13 49,-30 49,-37 z"
         id="path45"
         style="fill:#ffffff;fill-opacity:1" />
      <path
         d="m 5438,3996.0003 c 26,-13 56,-34 67,-46 19,-21 19,-21 -5,-68 -13,-26 -25,-49 -26,-50 -4,-5 -173,88 -179,98 -7,12 65,90 83,90 7,0 34,-11 60,-24 z"
         id="path44"
         style="fill:#ffffff;fill-opacity:1" />
      <path
         d="m 4858,3978.0003 c 76,-39 182,-97 237,-128 55,-32 159,-88 230,-125 72,-38 168,-92 215,-121 47,-29 123,-75 169,-101 115,-66 131,-95 100,-180 -8,-21 -11,-21 -131,39 -68,33 -134,68 -148,78 -14,9 -81,46 -150,82 -245,128 -740,426 -740,447 0,8 67,81 75,81 4,0 68,-32 143,-72 z"
         id="path43"
         style="fill:#ffffff;fill-opacity:1" />
    </g>
    <path
       d="m 5400,7699.0002 c 161,-22 350,-82 495,-155 345,-176 602,-438 770,-786 70,-146 104,-257 135,-448 12,-69 28,-155 36,-192 13,-55 13,-75 4,-105 -11,-35 -89,-178 -197,-363 -65,-110 -377,-529 -523,-703 -41,-48 -92,-109 -113,-135 -83,-101 -179,-194 -220,-212 -23,-10 -73,-23 -112,-30 -38,-7 -101,-19 -140,-27 -97,-21 -239,-42 -245,-36 -2,2 -4,111 -4,241 l 1,237 31,92 c 40,113 49,223 33,383 -7,63 -14,125 -18,138 -5,20 -2,22 41,22 33,0 48,5 53,16 10,26 -28,93 -77,134 l -47,39 -7,170 c -3,93 -4,176 -1,184 5,11 32,15 117,19 104,5 115,8 193,47 112,55 166,120 226,268 27,65 33,95 37,185 2,58 1,123 -2,143 -9,45 -66,110 -109,124 -26,9 -191,30 -243,31 -6,0 -21,27 -33,60 -49,134 -150,239 -298,311 -136,66 -283,83 -475,54 -226,-34 -383,-119 -477,-261 -92,-137 -139,-297 -148,-506 -5,-118 -4,-133 21,-211 25,-82 25,-87 16,-218 -12,-155 -28,-225 -69,-306 -40,-79 -144,-233 -222,-329 -36,-43 -85,-107 -109,-141 -24,-35 -46,-63 -49,-63 -7,0 -46,91 -98,224 -55,142 -67,229 -67,481 0,200 3,232 27,346 84,396 275,711 572,944 266,208 540,318 860,345 114,9 325,4 435,-11 z"
       id="path39"
       style="display:inline;fill:#7cd6c1;fill-opacity:1" />
    <path
       d="M6269 6678 c-11 -13 -38 -63 -60 -113 -22 -49 -44 -97 -48 -105 -5 -10 -37 -19 -87 -27 -76 -12 -116 -31 -138 -66 -17 -28 57 -91 131 -113 32 -9 65 -23 75 -31 9 -8 37 -63 63 -123 26 -59 58 -118 71 -131 23 -22 24 -22 45 -3 28 25 51 73 80 163 26 80 18 74 133 116 63 23 128 81 124 109 -4 30 -90 74 -160 82 -32 4 -64 12 -72 18 -8 6 -28 57 -46 113 -21 70 -37 107 -53 118 -28 20 -35 19 -58 -7z m31 -251 c0 -17 46 -60 84 -79 l29 -15 -41 -29 c-23 -16 -46 -40 -52 -52 l-10 -24 -39 40 c-22 22 -49 43 -60 47 -29 9 -26 22 7 39 15 8 37 31 47 50 20 37 35 47 35 23z"
       id="path2"
       style="fill:#11242e;fill-opacity:1" />
    <path
       d="M5858 5658 c-38 -28 -68 -58 -68 -68 0 -24 101 -128 133 -135 15 -4 37 -5 50 -2 34 9 142 100 144 122 2 15 -19 35 -82 78 -47 31 -91 57 -98 57 -6 -1 -42 -24 -79 -52z"
       id="path3"
       style="fill:#11242e;fill-opacity:1" />
    <path
       d="M5086 6934 c-30 -31 -36 -95 -11 -131 21 -30 66 -38 104 -19 37 20 51 44 51 89 0 78 -89 115 -144 61z"
       id="path4"
       style="fill:#11242e;fill-opacity:1" />
    <path
       d="M3597 4232 c-9 -9 -30 -51 -47 -92 -18 -41 -38 -81 -45 -89 -9 -9 -49 -17 -106 -22 -73 -6 -96 -11 -106 -26 -26 -34 -11 -55 77 -108 83 -49 85 -52 83 -86 -1 -20 -9 -56 -17 -80 -20 -57 -21 -108 -1 -116 9 -3 38 10 68 29 117 77 94 76 181 12 98 -72 111 -69 103 24 -4 37 -9 88 -13 113 l-6 47 71 37 c73 39 121 78 121 101 0 21 -29 43 -63 48 -18 3 -62 8 -98 11 l-66 6 -33 87 c-45 120 -68 143 -103 104z m66 -257 l43 -45 -23 -22 c-12 -11 -25 -29 -29 -40 -4 -13 -15 -18 -45 -18 -24 0 -39 5 -39 13 0 6 -14 30 -31 52 l-30 40 36 9 c20 4 43 19 52 32 8 13 17 24 19 24 3 0 24 -20 47 -45z"
       id="path5"
       style="fill:#11242e;fill-opacity:1" />
    <path
       d="M6422 4103 c-11 -16 -34 -67 -52 -114 l-32 -86 -102 -6 c-55 -3 -109 -8 -118 -12 -38 -15 -20 -52 62 -126 55 -50 80 -80 80 -95 0 -13 -13 -59 -30 -104 -37 -100 -38 -128 -7 -135 30 -8 59 4 147 59 45 27 78 42 89 38 9 -3 48 -28 87 -54 39 -26 85 -51 102 -54 27 -6 32 -3 37 19 4 14 -5 71 -20 133 l-26 107 33 26 c61 46 150 140 146 153 -8 24 -56 38 -159 46 l-102 7 -32 99 c-28 87 -51 126 -76 126 -4 0 -16 -12 -27 -27z m68 -274 c0 -3 16 -14 35 -25 19 -10 35 -20 35 -22 0 -2 -12 -19 -26 -38 -23 -30 -26 -41 -20 -81 l6 -47 -25 24 c-26 24 -26 24 -74 7 -61 -21 -64 -21 -51 2 16 31 12 66 -12 96 -22 28 -22 29 -3 39 11 6 38 30 60 54 l40 42 17 -22 c10 -13 18 -26 18 -29z"
       id="path6"
       style="fill:#11242e;fill-opacity:1" />
    <path
       d="M3603 3138 c-44 -50 -35 -100 22 -124 49 -20 72 -18 100 11 53 52 15 135 -63 135 -27 0 -44 -7 -59 -22z"
       id="path7"
       style="fill:#11242e;fill-opacity:1" />
    <path
       d="M6252 3013 c-42 -20 -82 -68 -82 -97 0 -23 48 -75 88 -95 17 -9 31 -9 57 -1 40 13 95 75 95 106 0 27 -34 70 -70 89 -36 19 -47 18 -88 -2z"
       id="path8"
       style="fill:#11242e;fill-opacity:1" />
  </g>
</svg>
