<?xml version="1.0" encoding="UTF-8" standalone="no"?>
<svg
   viewBox="0 0 24 24"
   width="416"
   height="416"
   version="1.1"
   id="svg1"
   sodipodi:docname="poop_icon_overlay.svg"
   inkscape:version="1.3.2 (091e20e, 2023-11-25, custom)"
   xmlns:inkscape="http://www.inkscape.org/namespaces/inkscape"
   xmlns:sodipodi="http://sodipodi.sourceforge.net/DTD/sodipodi-0.dtd"
   xmlns="http://www.w3.org/2000/svg"
   xmlns:svg="http://www.w3.org/2000/svg"
   xmlns:rdf="http://www.w3.org/1999/02/22-rdf-syntax-ns#"
   xmlns:cc="http://creativecommons.org/ns#"
   xmlns:dc="http://purl.org/dc/elements/1.1/">
  <defs
     id="defs1" />
  <sodipodi:namedview
     id="namedview1"
     pagecolor="#ffffff"
     bordercolor="#000000"
     borderopacity="0.25"
     inkscape:showpageshadow="2"
     inkscape:pageopacity="0.0"
     inkscape:pagecheckerboard="0"
     inkscape:deskcolor="#d1d1d1"
     inkscape:zoom="1.9938372"
     inkscape:cx="295.41028"
     inkscape:cy="160.74532"
     inkscape:window-width="3440"
     inkscape:window-height="1369"
     inkscape:window-x="-8"
     inkscape:window-y="1072"
     inkscape:window-maximized="1"
     inkscape:current-layer="svg1" />
  <title
     id="title1">emoticon-poop-outline</title>
  <path
     d="m 13.699151,12.294036 c -0.03667,-0.07667 -0.09667,-0.155 -0.195,-0.205 -0.06667,-0.04167 -0.125,-0.06333 -0.168333,-0.07333 0.04334,-0.158333 -0.01834,-0.283333 -0.103333,-0.376666 -0.128334,-0.136667 -0.26,-0.156667 -0.26,-0.156667 0.04333,-0.08333 0.06,-0.183333 0.03666,-0.28 -0.02666,-0.118333 -0.09167,-0.193333 -0.176667,-0.243333 -0.08667,-0.05167 -0.193333,-0.07667 -0.303333,-0.09667 -0.05333,-0.01 -0.275,-0.04167 -0.366667,-0.168333 -0.075,-0.103334 -0.07667,-0.29 -0.09667,-0.345 -0.0083,-0.02167 -0.02,-0.03333 -0.04333,-0.03333 -0.035,0 -0.08167,0.02 -0.131667,0.05333 -0.095,0.06333 -0.286666,0.263333 -0.361666,0.463333 -0.05667,0.15 -0.05833,0.286667 -0.035,0.388333 -0.09333,0.01667 -0.161667,0.04667 -0.188334,0.05833 -0.085,0.03667 -0.265,0.196666 -0.281666,0.445 -0.005,0.07333 0.0067,0.148333 0.02167,0.221666 0,0.01333 0,0.02666 0,0.04167 -0.103333,0.03166 -0.161666,0.06667 -0.166666,0.06833 -0.05333,0.02 -0.141667,0.08167 -0.166667,0.115 -0.05833,0.06667 -0.09667,0.145 -0.118333,0.228334 -0.04833,0.181666 -0.03167,0.388333 0.05667,0.555 0.04833,0.09333 0.115,0.195 0.188334,0.266666 0.24,0.246667 0.653333,0.34 0.979999,0.393334 0.136667,0.02333 0.276667,0.035 0.415,0.035 0.265,0 0.528334,-0.045 0.771667,-0.145 0.558333,-0.231667 0.706667,-0.605 0.73,-0.706667 0.04833,-0.231667 -0.01167,-0.45 -0.03667,-0.503333 m -0.895,-0.423334 c 0.09333,0.005 0.165,0.085 0.158334,0.178334 -0.0067,0.09167 -0.08333,0.163333 -0.181667,0.156666 -0.09333,-0.005 -0.165,-0.085 -0.158333,-0.176666 0.0067,-0.08833 0.07667,-0.155 0.163333,-0.158334 0.01,0 0.01,0 0.01834,0 m 0.688334,0.87 c -0.0016,0.0033 -0.08,0.325 -0.581667,0.531667 -0.203333,0.085 -0.431667,0.126667 -0.676667,0.126667 -0.121666,0 -0.248333,-0.01 -0.375,-0.03167 -0.269999,-0.04334 -0.646666,-0.125 -0.844999,-0.325 -0.045,-0.045 -0.09833,-0.121667 -0.141667,-0.205 -0.05667,-0.105 -0.07,-0.246667 -0.03667,-0.375 0.01333,-0.05 0.035,-0.09333 0.065,-0.126667 l 0.0033,-0.005 c 0.015,-0.015 0.05,-0.035 0.06333,-0.04167 v 0 l 0.01833,-0.0067 0.02,-0.01 c 0.01,-0.0067 0.03333,-0.01834 0.06833,-0.03167 0.07667,0.21 0.268333,0.358334 0.486666,0.358334 0.01333,0 0.025,-0.0016 0.03834,-0.0016 0.138334,-0.01 0.265,-0.07833 0.353333,-0.19 0.08833,-0.11 0.131667,-0.251667 0.12,-0.396667 -0.02,-0.278333 -0.24,-0.501666 -0.503333,-0.51 h -0.0033 c -0.02,0 -0.03667,0 -0.05167,0.0016 -0.05167,0.005 -0.09667,0.01834 -0.141667,0.03667 0.015,-0.01667 0.02834,-0.02834 0.03334,-0.03167 0.02167,-0.0083 0.06833,-0.025 0.131666,-0.04 l 0.258334,-0.04666 -0.05833,-0.256666 c -0.0067,-0.03167 -0.02,-0.123334 0.02666,-0.243334 0.025,-0.07167 0.07667,-0.145 0.128333,-0.208333 0.01666,0.045 0.03834,0.08833 0.07,0.128333 0.128333,0.18 0.353333,0.238334 0.51,0.265 l 0.01166,0.0034 c 0.07833,0.01333 0.166667,0.03167 0.221667,0.065 0.035,0.02167 0.05,0.04334 0.06,0.08667 0.0083,0.03333 0.0033,0.07167 -0.015,0.106667 l -0.08667,0.148333 c -0.21,0.05 -0.376667,0.24 -0.403333,0.476667 -0.03333,0.301666 0.165,0.566666 0.451666,0.603333 0.02,0.0016 0.04,0.0033 0.05833,0.0033 0.118333,0 0.233333,-0.04334 0.328333,-0.125 0.06833,-0.06 0.12,-0.136667 0.153333,-0.221667 l 0.02666,0.0067 c 0.01667,0.0033 0.045,0.01333 0.09167,0.04167 l 0.0083,0.0067 0.01167,0.0083 c 0.035,0.01333 0.06167,0.04333 0.08,0.08333 0.01333,0.02834 0.055,0.183333 0.02167,0.341666 m -2.09,-0.683333 c -0.01167,-0.09167 0.055,-0.176667 0.148334,-0.188333 0.0067,-0.0016 0.01167,-0.0016 0.01834,-0.0016 0.085,-0.0016 0.161666,0.06 0.171666,0.146666 0.01,0.09167 -0.05667,0.176667 -0.15,0.188334 -0.09333,0.01167 -0.178333,-0.05333 -0.188333,-0.145 m 0.178333,0.616666 c 0.04833,-0.0016 0.09167,0.01333 0.131667,0.02167 0.196666,0.03666 0.366666,0.04166 0.448333,0.04166 0.08167,0 0.25,-0.005 0.445,-0.04166 0.06833,-0.01334 0.146667,-0.04167 0.208333,0 0.08,0.05333 0.02167,0.245 -0.101666,0.375 -0.07667,0.07833 -0.255,0.23 -0.551667,0.23 -0.296667,0 -0.476666,-0.151666 -0.551666,-0.23 -0.123334,-0.13 -0.181667,-0.321666 -0.103334,-0.375 0.02333,-0.015 0.04833,-0.02167 0.075,-0.02167 z"
     id="path1"
     style="display:inline;opacity:0.65;stroke-width:0.166666"
     inkscape:label="poop" />
  <path
     id="rect5"
     style="display:inline;opacity:0.7;fill:#000000;stroke-width:0.0576923"
     d="M 0.028958834 0.028958834 L 0.028958834 24.045297 L 23.98738 24.045297 L 23.98738 0.028958834 L 0.028958834 0.028958834 z M 12.022311 10.31588 C 12.045641 10.31588 12.05725 10.327564 12.06558 10.349234 C 12.08558 10.404234 12.08726 10.590928 12.16226 10.694261 C 12.25393 10.820928 12.475588 10.852605 12.528921 10.862605 C 12.638921 10.882605 12.74559 10.907615 12.832257 10.959285 C 12.917257 11.009285 12.982273 11.084229 13.008939 11.202562 C 13.032269 11.299232 13.015638 11.399239 12.972318 11.482572 C 12.972318 11.482572 13.103939 11.502526 13.232272 11.639198 C 13.317272 11.732528 13.378932 11.857555 13.335599 12.015888 C 13.378929 12.025888 13.437277 12.047573 13.503944 12.089243 C 13.602274 12.139243 13.662214 12.217542 13.698881 12.294208 C 13.723881 12.347538 13.783944 12.565885 13.735614 12.797551 C 13.712285 12.899217 13.56389 13.272617 13.005559 13.504282 C 12.762226 13.604282 12.498923 13.649189 12.233924 13.649189 C 12.095591 13.649189 11.95559 13.637588 11.818923 13.614258 C 11.492257 13.560918 11.078941 13.467557 10.838942 13.220891 C 10.765612 13.149221 10.698986 13.04751 10.650654 12.954177 C 10.562324 12.787511 10.545644 12.580892 10.593975 12.399226 C 10.615645 12.315896 10.653956 12.237603 10.71229 12.170936 C 10.73729 12.137606 10.825611 12.075889 10.878944 12.055889 C 10.883944 12.054289 10.942267 12.019275 11.045598 11.987605 L 11.045598 11.945913 C 11.030598 11.872584 11.018963 11.797604 11.023963 11.724271 C 11.040633 11.475939 11.220551 11.31585 11.305551 11.279184 C 11.332211 11.267524 11.400618 11.237598 11.493953 11.220928 C 11.470623 11.119263 11.472214 10.982519 11.528884 10.83252 C 11.603884 10.632521 11.795588 10.432511 11.890587 10.369178 C 11.940587 10.335848 11.987314 10.31588 12.022311 10.31588 z " />
  <metadata
     id="metadata5">
    <rdf:RDF>
      <cc:Work
         rdf:about="">
        <dc:title>emoticon-poop-outline</dc:title>
      </cc:Work>
    </rdf:RDF>
  </metadata>
</svg>
